<svg t="1676461070011" class="icon" viewBox="0 0 1024 1024" version="1.1" xmlns="http://www.w3.org/2000/svg" p-id="2656" width="48" height="48"><path d="M859.904 810.496L773.888 318.72c-4.48-25.216-36.48-45.184-71.808-45.184h-21.376C668.16 192 597.888 129.536 513.152 129.536S358.144 192 345.6 273.536h-21.376c-35.328 0-67.328 19.84-71.808 45.184L166.4 810.496c-8.192 46.464 25.856 85.888 76.416 85.888h540.672c50.56-0.128 84.608-39.424 76.416-85.888zM513.152 193.792c49.28 0 90.752 33.92 102.4 79.744H410.88c11.648-45.824 52.992-79.744 102.272-79.744z m-140.8 263.936c-28.928 0-52.48-21.504-52.48-48.128s23.552-48.128 52.48-48.128 52.48 21.504 52.48 48.128-23.424 48.128-52.48 48.128z m281.6 0c-28.928 0-52.48-21.504-52.48-48.128s23.552-48.128 52.48-48.128 52.48 21.504 52.48 48.128-23.424 48.128-52.48 48.128z" fill="#FCC140" p-id="2657"></path></svg>