<?xml version="1.0" encoding="utf-8"?>
<svg version="1.1" xmlns:xlink="http://www.w3.org/1999/xlink" width="33px" height="33px" xmlns="http://www.w3.org/2000/svg">
  <defs>
    <filter x="290px" y="606px" width="33px" height="33px" filterUnits="userSpaceOnUse" id="filter80">
      <feOffset dx="1" dy="0" in="SourceAlpha" result="shadowOffsetInner" />
      <feGaussianBlur stdDeviation="1" in="shadowOffsetInner" result="shadowGaussian" />
      <feComposite in2="shadowGaussian" operator="atop" in="SourceAlpha" result="shadowComposite" />
      <feColorMatrix type="matrix" values="0 0 0 0 0.788235294117647  0 0 0 0 0.788235294117647  0 0 0 0 0.788235294117647  0 0 0 0.349019607843137 0  " in="shadowComposite" />
    </filter>
    <g id="widget81">
      <path d="M 305.5 608  C 313.62 608  320 614.38  320 622.5  C 320 630.62  313.62 637  305.5 637  C 297.38 637  291 630.62  291 622.5  C 291 614.38  297.38 608  305.5 608  Z " fill-rule="nonzero" fill="#ffffff" stroke="none" />
      <path d="M 305.5 608.5  C 313.34 608.5  319.5 614.66  319.5 622.5  C 319.5 630.34  313.34 636.5  305.5 636.5  C 297.66 636.5  291.5 630.34  291.5 622.5  C 291.5 614.66  297.66 608.5  305.5 608.5  Z " stroke-width="1" stroke="#84321c" fill="none" />
    </g>
  </defs>
  <g transform="matrix(1 0 0 1 -290 -606 )">
    <use xlink:href="#widget81" filter="url(#filter80)" />
    <use xlink:href="#widget81" />
  </g>
</svg>