<svg t="1679130506240" class="icon" viewBox="0 0 1251 1024" version="1.1" xmlns="http://www.w3.org/2000/svg" p-id="10964" width="48" height="48"><path d="M901.973333 71.111111a42.666667 42.666667 0 0 1 42.666667 42.666667v796.444444a42.666667 42.666667 0 0 1-42.666667 42.666667H113.777778A42.666667 42.666667 0 0 1 71.111111 910.222222V113.777778A42.666667 42.666667 0 0 1 113.777778 71.111111h788.195555m0-71.111111H113.777778a113.777778 113.777778 0 0 0-113.777778 113.777778v796.444444a113.777778 113.777778 0 0 0 113.777778 113.777778h788.195555a113.777778 113.777778 0 0 0 113.777778-113.777778V113.777778a113.777778 113.777778 0 0 0-113.777778-113.777778zM1180.444444 428.942222v166.115556L1080.888889 512l99.84-83.057778m26.453333-101.546666a44.088889 44.088889 0 0 0-28.444444 10.24l-168.391111 140.231111a44.373333 44.373333 0 0 0 0 68.266666l168.391111 140.231111a44.373333 44.373333 0 0 0 72.817778-34.133333v-280.462222a44.373333 44.373333 0 0 0-44.657778-44.373333z m-369.777778 87.324444a139.377778 139.377778 0 0 0-139.093333-139.093333H568.888889v-8.533334h-71.111111V642.844444L261.973333 267.093333h-85.333333l308.337778 489.813334H568.888889v-203.377778h105.244444l85.333334 203.377778h77.084444l-88.462222-212.48a138.524444 138.524444 0 0 0 89.6-129.706667zM568.888889 346.737778h129.991111a67.982222 67.982222 0 1 1 0 135.68H568.888889z" p-id="10965" fill="#C3272B"></path></svg>