<svg t="1679132397520" class="icon" viewBox="0 0 1365 1024" version="1.1" xmlns="http://www.w3.org/2000/svg" p-id="15513" width="48" height="48"><path d="M1268.565333 520.3968a51.2 51.2 0 1 0 57.002667-85.060267l-610.986667-409.6A51.2 51.2 0 0 0 657.8176 25.6l-617.813333 409.6a51.2 51.2 0 1 0 56.593066 85.333333L685.943467 129.809067l582.621866 390.587733z" fill="#C3272B" p-id="15514"></path><path d="M714.410667 588.8l-56.832-0.136533 28.330666 19.012266 28.4672-18.875733z m554.154666 409.463467a51.2 51.2 0 1 0 57.002667-85.060267l-610.986667-409.6a51.2 51.2 0 0 0-56.797866-0.136533l-617.813334 409.6a51.2 51.2 0 0 0 56.593067 85.333333l589.380267-390.724267 582.621866 390.587734z" fill="#C3272B" p-id="15515"></path></svg>