<svg t="1678786497426" class="icon" viewBox="0 0 1024 1024" version="1.1" xmlns="http://www.w3.org/2000/svg" p-id="1507" width="48" height="48"><path d="M526.661818 960.465455c-8.610909 0-17.221818-2.327273-24.901818-7.214546-65.861818-41.658182-396.101818-263.68-426.589091-539.461818-6.283636-56.785455 3.258182-114.269091 27.461818-165.934546 5.352727-11.636364 19.316364-16.756364 30.952728-11.170909 11.636364 5.585455 16.523636 19.316364 11.170909 30.952728-20.712727 43.985455-28.858182 92.625455-23.272728 141.032727 28.16 254.603636 342.574545 465.454545 405.410909 505.250909 36.538182-25.367273 164.538182-117.294545 267.403637-237.614545 126.370909-148.014545 168.261818-280.901818 124.043636-395.17091-32.581818-84.712727-111.476364-144.523636-201.076363-152.901818-57.949091-5.352727-115.432727 10.24-162.21091 43.52-16.523636 11.869091-38.865455 11.869091-55.156363 0-42.589091-30.487273-93.090909-45.614545-145.687273-44.450909-42.589091 0.930909-84.014545 13.963636-119.854545 37.003637-10.938182 6.749091-25.367273 3.723636-32.349091-6.981819a23.272727 23.272727 0 0 1 6.749091-32.116363c43.054545-27.927273 92.858182-43.287273 144.058181-44.450909 63.301818-1.629091 122.88 16.756364 173.847273 53.294545 57.018182-39.796364 125.672727-58.414545 194.792727-52.130909 107.054545 9.774545 201.309091 81.454545 240.407273 182.458182C1079.621818 570.181818 641.861818 891.345455 552.96 952.552727c-7.912727 5.12-16.989091 7.912727-26.298182 7.912728z" fill="#C3272B" p-id="1508"></path></svg>