<svg t="1676428493475" class="icon" viewBox="0 0 1024 1024" version="1.1" xmlns="http://www.w3.org/2000/svg" p-id="19830" width="48" height="48"><path d="M752.231363 218.916918c-64.168462-64.167438-149.483546-99.506295-240.231363-99.506295s-176.062901 35.338856-240.23034 99.506295c-64.168462 64.168462-99.507318 149.483546-99.507318 240.231363 0 54.126758 10.945283 104.028285 32.532951 148.318 19.932981 40.895409 49.554626 78.256318 88.141456 111.201661l-28.139897 125.244492 170.531931-48.888454 9.353019-3.212158c0.847298 0.170892 1.752924 0.358157 2.700505 0.553609 11.816117 2.438539 31.592532 6.520507 64.617693 6.520507 90.747817 0 176.062901-35.338856 240.231363-99.506295 64.167438-64.168462 99.506295-149.483546 99.506295-240.231363S816.398802 283.084357 752.231363 218.916918zM723.286124 670.434405c-56.43636 56.437383-131.473357 87.518263-211.287147 87.518263-28.844955 0-45.393863-3.415796-56.344263-5.676279-3.698229-0.763386-6.892991-1.422396-9.948583-1.830695l-4.820796-0.64366-17.374716 6.027274L319.863005 785.544073l14.656815-65.2327 5.960759-15.869433-27.910677-22.985504-0.005117 0.00614c-66.817802-59.859319-99.371218-132.784212-99.371218-222.314295 0-79.81379 31.081902-154.850787 87.518263-211.287147 56.43636-56.437383 131.473357-87.518263 211.287147-87.518263s154.849764 31.080879 211.287147 87.518263c56.437383 56.43636 87.518263 131.473357 87.518263 211.287147S779.724531 613.998045 723.286124 670.434405zM397.104203 416.044578c-4.455475-4.078899-9.701966-7.202029-15.739473-9.368368-6.03853-2.164293-12.55392-3.247974-19.549242-3.247974-4.246721 0-8.328689 0.436952-12.241812 1.311879-3.91517 0.873903-7.557116 2.041496-10.929934 3.497661-3.372817 1.458211-6.476505 3.103688-9.305947 4.934382-2.832512 1.832741-5.246491 3.665483-7.245008 5.496178-0.167822-1.081635-0.355087-2.267647-0.561795-3.560082-0.208754-1.290389-0.458441-2.538823-0.74906-3.747347-0.292666-1.206478-0.561795-2.330068-0.811482-3.372817-0.249687-1.040702-0.499373-1.852184-0.74906-2.435469l-30.604018 0c0.830925 4.330632 1.311879 8.599865 1.436722 12.803607 0.124843 4.205788 0.187265 7.641027 0.187265 10.305717l0 111.799272 32.477692 0L322.719052 436.155614c2.330068-1.249457 4.850471-2.373047 7.557116-3.372817 2.705622-0.99977 5.453199-1.873674 8.244778-2.622734 2.789533-0.74906 5.51562-1.311879 8.182356-1.686409 2.664689-0.37453 5.16258-0.561795 7.494695-0.561795 3.997034 0 7.535627 0.520863 10.617825 1.561565 3.080152 1.042749 5.683443 2.707668 7.806803 4.996804 2.12336 2.291183 3.725858 5.308913 4.809539 9.05626 1.081635 3.747347 1.623987 8.328689 1.623987 13.740956l0 83.193771 32.477692 0 0-89.315188c0-7.494695-1.292436-14.19735-3.872191-20.111037C405.076782 425.122327 401.558655 420.125523 397.104203 416.044578zM531.898189 510.168282c-2.623757 2.456958-5.372358 4.433986-8.244778 5.933129-2.874467 1.499144-5.995551 2.581802-9.369392 3.247974-3.371794 0.667196-7.30743 0.99977-11.803837 0.99977-5.164626 0-9.743922-1.3743-13.740956-4.121877s-7.350408-6.182816-10.055007-10.305717c-2.707668-4.121877-4.768607-8.513908-6.183839-13.178137-1.417279-4.663206-2.12336-8.950859-2.12336-12.866029l84.318384 0c0.665149-3.747347 1.103124-7.348362 1.310855-10.80509 0.207731-3.454682 0.313132-6.808056 0.313132-10.05603 0-8.494465-1.208525-16.176424-3.622504-23.046902-2.416026-6.870478-6.01704-12.719696-10.80509-17.550725-4.790096-4.828982-10.765181-8.535397-17.926278-11.117199-7.163143-2.579755-15.489786-3.872191-24.982998-3.872191-10.660804 0-19.924795 1.873674-27.79402 5.621021-7.870248 3.747347-14.408151 8.744151-19.612687 14.989389s-9.076726 13.471826-11.616572 21.672602c-2.540869 8.203846-3.810792 16.800641-3.810792 25.795503 0 9.327436 1.227967 18.321274 3.684926 26.981515 2.455935 8.662287 6.288217 16.322757 11.491729 22.984481 5.204535 6.66377 11.909238 11.992125 20.11206 15.989159 8.201799 3.997034 18.050098 5.995551 29.54285 5.995551 5.328355 0 10.450003-0.292666 15.364943-0.873903 4.912893-0.583285 9.742898-1.77032 14.490016-3.560082s9.513678-4.350075 14.303774-7.68196c4.78805-3.329838 9.762341-7.745405 14.926968-13.241582l-19.736507-17.113773C537.331945 504.652661 534.520923 507.71337 531.898189 510.168282zM471.750297 448.022896c0.830925-3.829212 2.248204-7.245008 4.246721-10.243295s4.704139-5.412266 8.119935-7.245008c3.413749-1.830695 7.744381-2.7486 12.991895-2.7486 5.578042 0 10.013051 1.02126 13.304004 3.060709 3.288906 2.041496 5.808286 4.622274 7.557116 7.744381s2.873444 6.579859 3.372817 10.368138c0.499373 3.790326 0.74906 7.432273 0.74906 10.929934l-51.591005 0C470.501864 455.810257 470.917326 451.854155 471.750297 448.022896zM714.221678 405.551596 693.235714 495.615844 668.75209 405.551596 651.139967 405.551596 629.904317 495.740688 605.171006 405.551596 569.695027 405.551596 617.787348 540.461215 640.396275 540.461215 660.633179 451.520557 683.867346 540.461215 705.22784 540.461215 749.697657 405.551596Z" fill="#C3272B" p-id="19831"></path></svg>