<svg t="1676428785603" class="icon" viewBox="0 0 1024 1024" version="1.1" xmlns="http://www.w3.org/2000/svg" p-id="29642" width="48" height="48"><path d="M896 68.2H129.5c-34.7 0-62.9 28.2-62.9 62.9v758.7c0 34.7 28.2 62.9 62.9 62.9H896c34.7 0 62.9-28.2 62.9-62.9V131.1c-0.1-34.7-28.3-62.9-62.9-62.9z m-759.4 70h111.9v744.5H136.6V138.2z m752.2 744.4H318.6V138.2H594v174l71.1-46.1 77.6 46.1v-174h146.2v744.4z" p-id="29643" fill="#C3272B"></path><path d="M445.5 462.4H624c19.3 0 35-15.7 35-35s-15.7-35-35-35H445.5c-19.3 0-35 15.7-35 35s15.7 35 35 35zM445.5 550.9c-19.3 0-35 15.7-35 35s15.7 35 35 35h313.2c19.3 0 35-15.7 35-35s-15.7-35-35-35H445.5zM758.8 709.4H445.5c-19.3 0-35 15.7-35 35s15.7 35 35 35h313.2c19.3 0 35-15.7 35-35 0.1-19.3-15.6-35-34.9-35z" p-id="29644" fill="#C3272B"></path></svg>