<svg t="1676428899216" class="icon" viewBox="0 0 1024 1024" version="1.1" xmlns="http://www.w3.org/2000/svg" p-id="30764" width="48" height="48"><path d="M855.466667 392.533333H168.533333c-29.866667 0-53.333333-23.466667-53.333333-53.333333 0-17.066667 8.533333-34.133333 23.466667-44.8l294.4-204.8c46.933333-34.133333 110.933333-34.133333 160 0l294.4 204.8c23.466667 17.066667 29.866667 49.066667 12.8 74.666667-10.666667 14.933333-27.733333 23.466667-44.8 23.466666z m-6.4-44.8z m-646.4-19.2h618.666666L554.666667 142.933333c-25.6-17.066667-59.733333-17.066667-85.333334 0L202.666667 328.533333zM857.6 960H166.4c-53.333333 0-96-42.666667-96-96v-21.333333c0-53.333333 42.666667-96 96-96h691.2c53.333333 0 96 42.666667 96 96v21.333333c0 53.333333-42.666667 96-96 96zM166.4 808.533333c-17.066667 0-32 14.933333-32 32v21.333334c0 17.066667 12.8 32 29.866667 32h693.333333c17.066667 0 32-14.933333 32-32v-23.466667c0-17.066667-14.933333-32-32-32H166.4z" fill="#C3272B" p-id="30765"></path><path d="M204.8 780.8c-17.066667 0-32-14.933333-32-32v-362.666667c0-17.066667 14.933333-32 32-32s32 14.933333 32 32v362.666667c0 17.066667-14.933333 32-32 32zM819.2 780.8c-17.066667 0-32-14.933333-32-32v-362.666667c0-17.066667 14.933333-32 32-32s32 14.933333 32 32v362.666667c0 17.066667-14.933333 32-32 32zM450.133333 789.333333c-17.066667 0-32-14.933333-32-32v-362.666666c0-17.066667 14.933333-32 32-32s32 14.933333 32 32v362.666666c0 19.2-12.8 32-32 32zM573.866667 789.333333c-17.066667 0-32-14.933333-32-32v-362.666666c0-17.066667 14.933333-32 32-32s32 14.933333 32 32v362.666666c0 19.2-14.933333 32-32 32zM695.466667 789.333333c-17.066667 0-32-14.933333-32-32v-362.666666c0-17.066667 14.933333-32 32-32s32 14.933333 32 32v362.666666c0 19.2-12.8 32-32 32zM328.533333 789.333333c-17.066667 0-32-14.933333-32-32v-362.666666c0-17.066667 14.933333-32 32-32s32 14.933333 32 32v362.666666c0 19.2-14.933333 32-32 32z" fill="#C3272B" p-id="30766"></path></svg>