<svg t="1679071898329" class="icon" viewBox="0 0 1024 1024" version="1.1" xmlns="http://www.w3.org/2000/svg" p-id="8230" width="48" height="48"><path d="M873.353711 149.157382A510.134127 510.134127 0 0 0 532.751227 0.404909v247.041247H491.352803V0.434893a510.114138 510.114138 0 0 0-342.121692 150.211713c-199.546 200.375568-198.896339 524.5766 1.489224 724.1226s524.5766 198.896339 724.1226-1.489223 198.886344-524.5766-1.489224-724.122601z" fill="#C3272B" p-id="8231" data-spm-anchor-id="a313x.7781069.0.i16" class=""></path><path d="M532.751227 283.577325V0.464878c-13.802806-0.639667-27.615607-0.599687-41.418413 0v283.112447zM532.751227 749.614435v273.85727c-13.802806 0.619677-27.615607 0.579698-41.418413 0V749.614435z" fill="#ffffff" p-id="8232" data-spm-anchor-id="a313x.7781069.0.i18" class="selected"></path><path d="M271.257513 755.561335V276.980763h478.580572v478.580572z" fill="#ffffff" p-id="8233" data-spm-anchor-id="a313x.7781069.0.i17" class="selected"></path></svg>