<svg t="1679024218005" class="icon" viewBox="0 0 1054 1024" version="1.1" xmlns="http://www.w3.org/2000/svg" p-id="5208" width="48" height="48"><path d="M498.665413 824.614245a60.112101 60.112101 0 0 1 56.739078 0l259.783056 139.076995-49.842448-295.952713a60.353031 60.353031 0 0 1 16.985584-52.854076L993.837338 404.973958l-291.495503-43.156633a60.20245 60.20245 0 0 1-45.325006-33.308609L527.034952 60.323216l-130.011994 268.1855a60.20245 60.20245 0 0 1-45.355122 33.308609l-291.495503 43.126517 211.566888 209.940609c13.913723 13.823374 20.238142 33.519423 16.985584 52.854076L238.822124 963.69124l259.813173-139.076995z m28.369539 53.185356l-259.813173 139.046878a60.142217 60.142217 0 0 1-87.698616-63.183961l49.842448-295.952713-211.536771-209.910492a60.353031 60.353031 0 0 1 33.549539-102.485711l291.525619-43.126518 129.981877-268.185499a60.142217 60.142217 0 0 1 108.298154 0l129.981877 268.185499 291.525619 43.126518a60.262682 60.262682 0 0 1 33.549539 102.455594l-211.536771 209.940609 49.842448 295.952713a60.262682 60.262682 0 0 1-87.728732 63.183961L527.034952 877.799601z" fill="#ffffff" p-id="5209"></path></svg>