<svg t="1676456696993" class="icon" viewBox="0 0 1113 1024" version="1.1" xmlns="http://www.w3.org/2000/svg" p-id="2028" width="48" height="48"><path d="M1080.416196 582.353412l-471.874476 208.616691c-45.178335 19.339264-63.160692 19.339264-104.86223 0L31.805014 582.353412C6.760067 569.287063 0 520.867722 0 494.430277c31.500266 17.704302 75.793275 37.423944 74.149415 36.420723l481.962302 218.519889 481.960077-218.519889c0.843062-0.186853 43.799184-21.488071 74.149415-36.420723C1112.218985 521.477218 1103.69049 571.689456 1080.416196 582.353412zM1080.416196 363.833523l-471.874476 208.62114c-45.178335 19.33259-63.160692 19.33259-104.86223 0L31.805014 363.833523c-37.06581-19.343713-35.909102-80.257722 0-103.011498L503.67949 15.789061c41.701539-20.4804 67.794196-21.614864 104.86223 0l471.874476 245.032965C1116.323074 280.165738 1115.164141 347.906548 1080.416196 363.833523zM556.111717 57.383826 74.149415 312.328887l481.962302 199.743408 481.960077-199.743408L556.111717 57.383826zM556.111717 57.383826M556.111717 967.89745l481.960077-218.526562c0.843062-0.186853 43.799184-21.488071 74.149415-36.418498 0 27.049166-8.53072 77.25918-31.805014 87.929809l-471.874476 208.607793c-45.178335 19.345937-63.160692 19.345937-104.86223 0l-471.874476-208.607793C6.760067 787.809176 0 739.394284 0 712.954614c31.500266 17.710975 75.793275 37.423944 74.149415 36.418498L556.111717 967.89745z" p-id="2029"></path></svg>