<svg t="1679074262356" class="icon" viewBox="0 0 1059 1024" version="1.1" xmlns="http://www.w3.org/2000/svg" p-id="20405" width="48" height="48"><path d="M917.578248 635.127492h-5.259215c-6.806042 0-12.374622-5.56858-12.374622-12.374622v-238.830211c0-6.806042 5.56858-12.374622 12.374622-12.374623h5.259215c6.806042 0 12.374622 5.56858 12.374622 12.374623v238.830211c0 6.806042-5.56858 12.374622-12.374622 12.374622zM670.085801 554.692447c-5.259215-2.165559-8.043505-8.043505-5.877946-13.302719l87.550453-226.764955c2.165559-5.259215 8.043505-8.043505 13.302719-5.877945 5.259215 2.165559 8.043505 8.043505 5.877946 13.302719l-87.550453 226.764955c-2.165559 5.259215-8.043505 7.734139-13.302719 5.877945z" fill="#BC710D" p-id="20406"></path><path d="M707.828399 334.114804l2.474924-14.849547c1.546828-8.35287 9.280967-14.230816 17.943203-12.683988l229.549244 38.051964c8.35287 1.546828 14.230816 9.280967 12.683988 17.943202l-2.474924 14.849547c-1.546828 8.35287-9.280967 14.230816-17.943203 12.683988l-229.549244-38.051964c-8.35287-1.546828-14.230816-9.590332-12.683988-17.943202zM697.000604 434.039879l1.237462-4.949849c1.856193-6.806042 8.971601-10.827795 15.468278-8.971601L943.564955 482.610272c6.806042 1.856193 10.827795 8.971601 8.971601 15.468278l-1.237462 4.949849c-1.856193 6.806042-8.971601 10.827795-15.468278 8.971601l-229.858611-62.491843c-6.806042-1.856193-10.827795-8.662236-8.971601-15.468278zM405.268882 984.401208l-7.424773-0.618731c-7.115408-0.618731-12.374622-7.115408-11.755891-14.230815l27.224169-269.148037c0.618731-7.115408 7.115408-12.374622 14.230815-11.755891l7.424774 0.618731c7.115408 0.618731 12.374622 7.115408 11.755891 14.230816l-27.224169 269.148036c-0.618731 7.424773-7.115408 12.683988-14.230816 11.755891zM231.405438 905.203625c-4.949849-1.237462-8.043505-6.806042-7.115408-12.374622l43.92991-235.42719c0.928097-5.56858 5.877946-8.971601 10.827794-7.424774 4.949849 1.237462 8.043505 6.806042 7.115408 12.374623l-43.929909 235.42719c-1.237462 5.259215-5.877946 8.662236-10.827795 7.424773z" fill="#BC710D" p-id="20407"></path><path d="M256.154683 642.552266l3.403021-14.540181c1.856193-8.35287 9.280967-13.302719 16.70574-11.446526l197.375227 54.757704c7.115408 1.856193 11.446526 10.518429 9.590332 18.561933l-3.403021 14.540182c-1.856193 8.35287-9.280967 13.302719-16.70574 11.446525l-197.375227-54.757704c-7.115408-1.856193-11.446526-10.209063-9.590332-18.561933zM233.261631 759.492447l1.546828-4.949849c1.856193-6.496677 8.35287-10.209063 13.92145-8.35287l198.303324 72.082175c5.877946 2.165559 8.971601 9.280967 7.115407 15.777644l-1.546827 4.949849c-1.856193 6.496677-8.35287 10.209063-13.92145 8.35287l-198.303324-72.082175c-5.877946-2.165559-8.971601-9.280967-7.115408-15.777644z" fill="#BC710D" p-id="20408"></path><path d="M37.742598 634.508761c3.093656 18.871299 6.496677 38.051964 9.590333 56.923263 8.35287 16.087009 19.799396 34.339577 35.886404 52.592145 46.404834 52.592145 103.637462 72.700906 133.027191 80.744411 20.108761-11.13716 40.217523-22.27432 60.016918-33.41148-0.309366-5.259215-0.928097-10.209063-1.237462-15.468278 141.070695-104.874924 290.49426-210.059215 447.961329-314.934139 81.363142-54.138973 162.107553-106.112387 241.923867-156.229607 2.474924 3.093656 5.259215 5.877946 7.734139 8.971601 10.518429-4.331118 21.346224-8.662236 31.864653-12.683988 5.877946-17.943202 12.065257-35.886405 17.943202-53.829607-14.849547-14.540181-41.145619-36.505136-79.506948-52.592145-41.454985-17.324471-78.269486-19.49003-99.925076-19.180665-155.301511 70.535347-322.358912 155.920242-495.912991 259.248338-111.062236 66.513595-214.080967 133.336556-309.365559 199.850151z" fill="#763225" p-id="20409"></path><path d="M225.527492 775.270091l-1.856193-0.309366c-41.76435-9.590332-81.981873-28.461631-115.702719-54.757704-29.699094-22.893051-54.757704-50.735952-74.247734-83.219335l-2.165559-3.712387 3.712387-2.474924c100.543807-69.607251 205.109366-137.048943 309.98429-199.850151 145.401813-87.241088 296.681571-168.60423 449.508157-242.233233l0.618731-0.309366h0.928097c26.605438-2.78429 78.578852-2.165559 125.911782 31.555287 17.015106 12.065257 31.555287 26.914804 43.311178 44.858006l2.474925 3.712387-742.477342 506.740786z m-181.597583-139.523867c18.561934 29.699094 41.76435 55.685801 69.607251 77.032024 32.174018 24.749245 70.225982 43.001813 110.134139 52.592145L955.320846 266.054381c-10.827795-15.158912-23.821148-28.152266-38.361329-38.670695-44.54864-31.555287-93.428399-32.483384-119.105741-30.008459-152.517221 73.319637-303.178248 154.682779-448.270694 241.305136-103.328097 62.182477-206.346828 128.386707-305.653173 197.065861z" p-id="20410"></path><path d="M225.527492 754.851964l-2.165558-0.618731c-39.908157-10.209063-76.103927-28.152266-107.968581-53.210877-23.202417-18.252568-43.311178-40.217523-59.707552-64.966767l-2.474925-3.712387 38.361329-28.152265 1.856194 0.309365c40.836254 6.496677 80.435045 5.56858 117.249547-2.474924 32.792749-7.424773 59.088822-19.180665 82.291238-29.699094 34.648943-15.777644 64.348036-29.389728 102.709366-21.346224 20.727492 4.331118 40.217523 13.92145 58.47009 29.080363l4.640484 3.712387L225.527492 754.851964z m-159.632628-120.652568c15.468278 22.583686 34.030211 42.383082 55.376435 59.398187 30.317825 24.130514 64.657402 41.145619 102.4 51.045317l219.958912-161.488821c-15.468278-12.065257-32.174018-19.799396-49.498489-23.511783-34.958308-7.115408-62.491843 5.259215-96.83142 20.727493-23.511782 10.827795-50.426586 22.893051-84.147432 30.317824-37.433233 8.35287-77.34139 9.280967-118.796375 2.78429l-28.461631 20.727493z" p-id="20411"></path><path d="M402.793958 412.693656c0.928097-13.302719 2.165559-25.367976 3.403021-39.289426 0-0.618731 0.618731-6.187311 2.474924-7.115408 1.237462-0.618731 3.093656-2.474924 4.640484-2.78429 1.546828-0.309366 2.78429 0 4.021752 0.309365s3.093656 2.474924 3.403021 2.78429c8.662236 12.374622 17.943202 22.583686 25.05861 35.57704-1.546828 2.474924-0.309366 4.640483-3.712386 5.56858-4.331118 1.237462-8.043505 0.618731-12.065257-4.949849 0-0.309366-5.877946-6.806042-7.734139-9.590333-1.856193-2.78429-6.187311-11.446526-8.043505-15.777643 0 6.187311 0.309366 12.374622-0.309365 18.871299-0.618731 6.496677-0.618731 12.374622-1.546828 19.180665 0 0.309366-1.856193 3.403021-3.712387 3.093655-0.309366 0-3.093656 0.618731-4.021752-0.618731-0.618731-1.546828-2.165559-3.093656-1.856193-5.259214z" fill="#3D0D08" p-id="20412"></path><path d="M418.880967 404.03142c1.237462-12.993353 2.165559-25.05861 3.403021-38.670695 0-0.618731 0.618731-6.187311 2.474924-7.115408 1.237462-0.618731 3.093656-2.474924 4.640484-2.474924 1.546828-0.309366 2.78429 0 4.021752 0.309365s2.78429 2.165559 3.093656 2.78429c8.35287 11.755891 17.633837 21.964955 24.439879 34.648943-1.546828 2.474924-0.309366 4.331118-3.712387 5.56858-4.021752 1.237462-8.043505 0.618731-11.755891-4.640483-0.309366-0.309366-5.56858-6.806042-7.424774-9.590333-1.856193-2.78429-6.187311-11.446526-7.734139-15.468278 0 5.877946 0.309366 12.065257-0.309365 18.252568-0.618731 6.187311-0.618731 12.374622-1.546828 18.871299 0 0.309366-1.856193 3.403021-3.712387 3.093656-0.309366 0-3.093656 0.618731-4.021752-0.618731-0.618731-1.546828-2.165559-2.78429-1.856193-4.949849z" fill="#3C0E09" p-id="20413"></path><path d="M435.277341 395.369184c1.237462-12.683988 2.474924-24.439879 3.712387-37.742598 0-0.618731 0.618731-5.877946 2.165559-6.806042 1.237462-0.618731 3.093656-2.474924 4.331118-2.474925 1.546828-0.309366 2.78429 0 4.021752 0.309366s2.78429 2.165559 3.093656 2.78429c8.043505 11.446526 17.015106 21.655589 23.511782 33.720846-1.546828 2.474924-0.309366 4.331118-3.712387 5.56858-4.021752 1.237462-7.734139 0.618731-11.446525-4.331118-0.309366-0.309366-5.259215-6.496677-7.115408-9.280967-1.856193-2.78429-5.877946-11.13716-7.424773-15.158912 0 5.877946 0.309366 11.446526-0.309366 17.324471-0.618731 6.187311-0.928097 12.065257-1.546828 18.561934 0 0.618731-1.856193 3.403021-3.712387 3.403021-0.309366 0-3.093656 0.618731-4.021752-0.618731-0.618731-1.546828-1.856193-3.093656-1.546828-5.259215z" fill="#3B0E09" p-id="20414"></path><path d="M451.983082 387.016314c1.237462-12.374622 2.474924-24.130514 4.021752-37.123867 0-0.618731 0.618731-5.877946 2.165559-6.806042 1.237462-0.618731 2.78429-2.165559 4.331118-2.474925 1.546828-0.309366 2.78429 0 4.021752 0.309366s2.78429 2.165559 3.093655 2.78429c7.734139 11.13716 16.396375 21.036858 22.893052 33.102115-1.546828 2.474924-0.309366 4.331118-3.712387 5.56858-4.021752 1.237462-7.424773 0.618731-11.13716-4.331118-0.309366-0.309366-5.259215-6.496677-7.115408-9.280967-1.856193-2.78429-5.56858-10.827795-7.115408-14.849547 0 5.56858 0.309366 11.13716-0.309365 16.705741-0.618731 5.877946-0.928097 12.065257-1.856194 18.252568-0.309366 0.618731-1.856193 4.021752-3.712386 3.712386-0.309366 0-3.093656 0.618731-4.021753-0.928096-0.618731-1.237462-1.856193-2.78429-1.546827-4.640484z" fill="#3A0F0A" p-id="20415"></path><path d="M468.688822 378.663444c1.237462-12.065257 2.78429-23.511782 4.021752-36.19577 0-0.618731 0.618731-5.56858 2.165559-6.496677 0.928097-0.618731 2.78429-2.165559 4.021752-2.474924 1.546828-0.309366 2.78429 0 4.021752 0.309365s2.78429 2.165559 3.093656 2.474925c7.424773 10.827795 16.087009 20.727492 21.964955 32.174018-1.237462 2.474924-0.309366 4.331118-3.403021 5.259214-3.712387 1.237462-7.424773 0.618731-10.827795-4.021752-0.309366-0.309366-4.949849-6.187311-6.806042-8.971601-1.856193-2.78429-5.56858-10.518429-6.806043-14.540182 0 5.259215 0.309366 10.518429-0.309365 16.087009-0.618731 5.877946-0.928097 11.755891-1.856193 17.943203-0.309366 0.928097-2.165559 4.021752-4.021753 4.021752-0.309366 0-3.093656 0.618731-4.021752-0.928097-0.309366-0.928097-1.546828-2.474924-1.237462-4.640483z" fill="#390F0B" p-id="20416"></path><path d="M485.703927 370.929305c1.237462-11.755891 2.78429-22.893051 4.331118-35.267674 0-0.618731 0.618731-5.56858 2.165559-6.496676 0.928097-0.618731 2.78429-2.165559 4.021752-2.165559 1.546828-0.309366 2.78429 0 4.021753 0.309365s2.474924 2.165559 2.78429 2.474925c7.115408 10.518429 15.468278 20.108761 21.346223 31.245921-1.237462 2.78429-0.309366 4.021752-3.403021 5.259215-3.712387 1.237462-7.115408 0.618731-10.518429-4.021753-0.309366-0.309366-4.949849-6.187311-6.496677-8.971601-1.856193-2.78429-5.259215-10.209063-6.806042-14.230815 0 4.949849 0.309366 10.209063-0.309365 15.468278-0.618731 5.56858-1.237462 11.755891-1.856194 17.633836-0.309366 0.928097-2.165559 4.331118-4.021752 4.331118-0.618731 0.309366-3.093656 0.309366-3.712387-0.928096-0.928097-1.237462-1.856193-2.78429-1.546828-4.640484z" fill="#37100B" p-id="20417"></path><path d="M503.028399 363.195166c1.546828-11.446526 3.093656-22.583686 4.640483-34.648942 0-0.618731 0.618731-5.259215 2.165559-6.187312 0.928097-0.618731 2.78429-2.165559 4.021752-2.165559 1.237462-0.309366 2.78429 0 3.712387 0.309366 1.237462 0.309366 2.474924 2.165559 2.78429 2.474925 7.115408 10.209063 14.849547 19.799396 20.418127 30.317824-1.237462 2.78429-0.309366 4.021752-3.403021 5.259215-3.403021 1.237462-6.806042 0.618731-10.209064-3.712387-0.309366-0.618731-4.640483-6.187311-6.187311-8.662236-1.546828-2.78429-4.949849-9.899698-6.496677-13.92145 0 4.949849 0.309366 9.899698-0.309365 14.849547-0.618731 5.56858-1.237462 11.446526-2.165559 17.324471-0.309366 1.237462-2.165559 4.331118-4.021752 4.331118-0.618731 0.309366-3.093656 0.309366-3.712387-0.928096-0.618731-1.237462-1.546828-2.78429-1.237462-4.640484z" fill="#36100C" p-id="20418"></path><path d="M520.35287 355.770393c1.546828-11.446526 3.093656-21.964955 4.949849-33.720846 0-0.618731 0.618731-5.259215 2.165559-6.187311 0.928097-0.618731 2.474924-1.856193 3.712387-2.165559 1.237462-0.309366 2.78429 0 3.712386 0.309365s2.474924 1.856193 2.78429 2.474925c6.806042 9.899698 14.230816 19.49003 19.799396 29.699093-0.928097 2.78429-0.309366 4.021752-3.403021 5.259215-3.403021 1.237462-6.806042 0.618731-9.899698-3.712387-0.309366-0.618731-4.331118-5.877946-6.187311-8.662235-1.546828-2.78429-4.949849-9.590332-6.187311-13.302719 0 4.640483 0.309366 9.280967-0.309366 14.230815-0.618731 5.259215-1.237462 11.446526-2.165559 17.015106-0.309366 1.237462-2.165559 4.640483-4.021752 4.640483-0.618731 0.309366-3.093656 0.309366-3.712387-0.928096-0.618731-1.856193-1.546828-3.093656-1.237462-4.949849z" fill="#35110D" p-id="20419"></path><path d="M537.986707 348.654985c1.546828-11.13716 3.403021-21.346224 4.949849-33.102115 0-0.618731 0.618731-4.949849 2.165559-5.877946 0.928097-0.618731 2.474924-1.856193 3.712387-2.165558 1.237462-0.309366 2.78429 0.309366 3.712386 0.309365s2.474924 1.856193 2.474925 2.474925c6.496677 9.590332 13.92145 18.871299 18.871299 28.770997-0.928097 2.78429-0.309366 4.021752-3.093656 4.949849-3.403021 1.237462-6.496677 0.618731-9.280967-3.403022-0.309366-0.618731-4.331118-5.877946-5.877945-8.35287-1.546828-2.78429-4.640483-9.590332-5.877946-12.993353 0 4.331118 0 8.971601-0.309365 13.302719-0.618731 5.259215-1.546828 11.13716-2.165559 16.70574-0.618731 1.546828-2.165559 4.331118-4.021753 4.949849-0.618731 0.309366-3.093656 0.309366-3.712386-0.928097-1.237462-1.546828-1.856193-2.78429-1.546828-4.640483z" fill="#34110D" p-id="20420"></path><path d="M555.620544 341.539577c1.546828-10.827795 3.403021-21.036858 5.259214-32.174018 0-0.618731 0.618731-4.949849 2.165559-5.877946 0.928097-0.618731 2.474924-1.856193 3.403021-2.165559 1.237462-0.309366 2.78429 0.309366 3.712387 0.309366 0.928097 0.309366 2.165559 1.856193 2.474925 2.165559 6.187311 9.280967 13.302719 18.561934 18.252568 27.8429-0.928097 2.78429-0.309366 4.021752-3.093656 4.949849-3.093656 1.237462-6.187311 0.618731-8.971601-3.403021-0.309366-0.618731-4.021752-5.56858-5.56858-8.35287-1.546828-2.474924-4.640483-9.280967-5.56858-12.683988 0 4.331118 0 8.35287-0.309366 12.683988-0.618731 5.259215-1.546828 11.13716-2.474924 16.396374-0.618731 1.546828-2.165559 4.640483-4.331118 5.259215-0.928097 0.309366-3.093656 0.309366-3.712387-0.928097-0.928097-0.618731-1.546828-2.165559-1.237462-4.021752z" fill="#33120E" p-id="20421"></path><path d="M573.254381 335.0429c1.546828-10.518429 3.712387-20.418127 5.56858-31.245921 0.309366-0.618731 0.618731-4.640483 2.165559-5.56858 0.928097-0.618731 2.474924-1.856193 3.403021-1.856194 1.237462-0.309366 2.78429 0.309366 3.712386 0.309366s2.165559 1.856193 2.474925 2.165559c5.877946 8.662236 12.683988 17.943202 17.324471 26.914804-0.928097 2.78429-0.309366 3.712387-3.093655 4.949848-3.093656 1.237462-5.877946 0.618731-8.662236-3.093655-0.309366-0.618731-4.021752-5.56858-5.259214-8.043505-1.546828-2.474924-4.331118-8.971601-5.259215-12.374622 0 4.021752 0 8.043505-0.309366 12.065257-0.618731 4.949849-1.546828 10.827795-2.474924 16.087009-0.618731 1.856193-2.165559 4.640483-4.331118 5.56858-0.928097 0.309366-3.093656 0.309366-3.712387-0.928097-1.237462-1.856193-1.856193-3.093656-1.546827-4.949849z" fill="#32120F" p-id="20422"></path><path d="M591.197583 328.855589c1.856193-10.209063 3.712387-19.799396 5.56858-30.62719 0.309366-0.618731 0.618731-4.640483 1.856193-5.259215 0.928097-0.618731 2.165559-1.856193 3.403022-1.856193 1.237462-0.309366 2.474924 0.309366 3.712386 0.309365 0.928097 0.309366 2.165559 1.856193 2.474925 2.165559 5.877946 8.35287 12.374622 17.633837 16.70574 26.296073-0.618731 2.78429-0.309366 3.712387-3.093656 4.949849-2.78429 1.237462-5.877946 0.618731-8.35287-3.093656-0.309366-0.928097-3.712387-5.56858-5.259214-8.043504-1.237462-2.474924-4.021752-8.662236-5.259215-12.065257 0 3.712387 0 7.424773-0.309365 11.446526-0.618731 4.949849-1.856193 10.827795-2.474925 15.777643-0.618731 1.856193-2.165559 4.949849-4.331118 5.56858-0.928097 0.309366-3.093656 0.309366-3.712386-0.928096-0.618731-1.546828-1.237462-2.78429-0.928097-4.640484z" fill="#31130F" p-id="20423"></path><path d="M609.450151 322.977644c1.856193-9.899698 3.712387-19.49003 5.877946-29.699094 0.309366-0.618731 0.928097-4.331118 1.856193-5.259215 0.928097-0.618731 2.165559-1.546828 3.093656-1.856193 1.237462-0.309366 2.474924 0.309366 3.403021 0.618731s2.165559 1.856193 2.165559 2.165559c5.56858 8.043505 11.755891 17.015106 16.087009 25.367976-0.618731 2.78429-0.309366 3.712387-2.78429 4.949849-2.78429 1.237462-5.56858 0.618731-8.043505-2.78429-0.309366-0.928097-3.712387-5.259215-4.949849-7.734139s-4.021752-8.35287-4.949849-11.755891c0 3.403021 0 7.115408-0.309365 10.827794-0.618731 4.640483-1.856193 10.518429-2.78429 15.468278-0.618731 2.165559-2.165559 5.259215-4.331118 5.877946-0.928097 0.309366-3.093656 0.309366-3.712387-1.237463-0.618731-1.856193-1.237462-3.093656-0.618731-4.949848z" fill="#301310" p-id="20424"></path><path d="M627.393353 317.409063c1.856193-9.590332 4.021752-18.871299 6.187312-29.080362 0.309366-0.618731 0.928097-4.331118 1.856193-4.949849 0.928097-0.618731 2.165559-1.546828 3.093656-1.856193 1.237462-0.309366 2.474924 0.309366 3.403021 0.618731 0.928097 0.309366 1.856193 1.546828 2.165559 2.165559 5.259215 7.734139 11.13716 16.70574 15.158912 24.439879-0.618731 3.093656-0.309366 3.712387-2.78429 4.640483-2.78429 1.237462-5.259215 0.618731-7.734139-2.78429-0.618731-0.928097-3.403021-5.259215-4.640483-7.734139s-3.712387-8.043505-4.640484-11.446526c0 3.403021 0 6.806042-0.309365 10.209064-0.928097 4.640483-2.165559 10.518429-2.78429 15.158912-0.618731 2.165559-2.165559 5.259215-4.331118 6.187312-1.237462 0.309366-3.093656 0.309366-3.712387-1.237463s-1.237462-2.474924-0.928097-4.331118z" fill="#2F1411" p-id="20425"></path><path d="M645.645921 312.149849c1.856193-9.280967 4.021752-18.561934 6.187312-28.152266 0.309366-0.618731 0.928097-4.021752 1.856193-4.949849 0.618731-0.618731 2.165559-1.546828 2.78429-1.546828 1.237462-0.309366 2.474924 0.309366 3.403021 0.618731 0.928097 0.309366 1.856193 1.546828 2.165559 1.856194 4.949849 7.424773 10.827795 16.087009 14.540181 23.511782-0.309366 3.093656-0.309366 3.403021-2.78429 4.640484-2.474924 1.237462-5.259215 0.618731-7.424773-2.474925-0.618731-0.928097-3.093656-5.259215-4.331118-7.424773-1.237462-2.474924-3.403021-7.734139-4.331118-11.13716 0 3.093656 0 6.187311-0.309365 9.590332-0.928097 4.331118-2.165559 10.518429-2.78429 14.849547-0.928097 2.474924-2.165559 5.56858-4.640484 6.496677-1.237462 0.618731-3.093656 0-3.712386-1.237463-0.618731-1.546828-1.237462-2.78429-0.618732-4.640483z" fill="#2D1412" p-id="20426"></path><path d="M663.898489 307.509366c2.165559-9.280967 4.331118-17.943202 6.496677-27.533535 0.309366-0.618731 0.928097-4.021752 1.856194-4.640484 0.618731-0.618731 2.165559-1.546828 2.78429-1.546827 1.237462-0.309366 2.474924 0.309366 3.403021 0.618731 0.928097 0.309366 1.856193 1.546828 1.856193 1.856193 4.640483 7.115408 10.209063 15.777644 13.612085 22.893051-0.309366 3.093656-0.309366 3.403021-2.474925 4.640484-2.474924 1.237462-4.949849 0.618731-7.115408-2.474925-0.618731-0.928097-3.093656-4.949849-4.331118-7.424773-1.237462-2.474924-3.403021-7.734139-4.021752-10.827795 0 2.78429 0 5.877946-0.309365 8.662236-0.928097 4.331118-2.165559 10.209063-3.093656 14.540181-0.928097 2.474924-2.165559 5.56858-4.640483 6.806043-1.237462 0.618731-2.78429 0-3.712387-1.237463-0.618731-1.237462-0.928097-2.474924-0.309366-4.331117z" fill="#2C1412" p-id="20427"></path><path d="M682.151057 303.178248c2.165559-8.971601 4.331118-17.324471 6.806043-26.605438 0.309366-0.618731 0.928097-3.712387 1.856193-4.640484 0.618731-0.618731 1.856193-1.237462 2.78429-1.546828 1.237462-0.309366 2.474924 0.309366 3.403021 0.618732s1.546828 1.546828 1.856194 1.856193c4.331118 6.806042 9.590332 15.158912 12.993353 21.964955-0.309366 3.093656-0.309366 3.403021-2.474924 4.640483-2.474924 1.237462-4.640483 0.618731-6.806043-2.165559-0.618731-0.928097-2.78429-4.949849-4.021752-7.115408-1.237462-2.474924-3.093656-7.424773-4.021752-10.209063 0 2.474924 0 5.259215-0.309366 8.043504-0.928097 4.021752-2.474924 10.209063-3.093655 13.92145-0.928097 2.78429-2.165559 5.877946-4.640484 6.806043-1.237462 0.618731-2.78429 0-3.712386-1.237462-0.928097-1.546828-1.237462-2.474924-0.618732-4.331118z" fill="#2B1513" p-id="20428"></path><path d="M700.403625 299.156495c2.165559-8.662236 4.640483-17.015106 6.806043-25.677341 0.309366-0.618731 0.928097-3.712387 1.856193-4.331118 0.618731-0.618731 1.856193-1.237462 2.474924-1.546828 1.237462-0.309366 2.474924 0.309366 3.093656 0.618732 0.928097 0.309366 1.546828 1.546828 1.856193 1.856193 4.331118 6.496677 9.280967 14.849547 12.065257 21.036858-0.309366 3.093656-0.309366 3.403021-2.474924 4.331118-2.165559 1.237462-4.640483 0.618731-6.496677-2.165559-0.618731-1.237462-2.78429-4.640483-3.712387-7.115408s-2.78429-7.115408-3.712386-9.899698c0 2.474924 0 4.949849-0.309366 7.424774-0.928097 4.021752-2.474924 9.899698-3.093656 13.612084-0.928097 2.78429-2.165559 6.187311-4.640483 7.115408-1.237462 0.618731-2.78429 0-3.712387-1.237462-0.309366-0.928097-0.618731-2.165559 0-4.021753z" fill="#2A1514" p-id="20429"></path><path d="M718.656193 295.753474c2.165559-8.35287 4.640483-16.396375 7.115408-25.05861 0.309366-0.618731 0.928097-3.403021 1.856194-4.331118 0.618731-0.618731 1.856193-1.237462 2.474924-1.546828 1.237462-0.309366 2.474924 0.309366 3.093656 0.618732 0.928097 0.309366 1.546828 1.546828 1.856193 1.856193 4.021752 6.187311 8.662236 14.230816 11.446526 20.108761 0 3.093656-0.618731 3.093656-2.474925 4.331118-2.165559 1.237462-4.331118 0.618731-6.187311-1.856193-0.618731-1.237462-2.474924-4.640483-3.403021-6.806043-0.928097-2.165559-2.78429-6.806042-3.403021-9.590332 0 2.165559 0 4.640483-0.309366 6.806042-0.928097 3.712387-2.474924 9.899698-3.403021 13.302719-0.928097 3.093656-2.165559 6.187311-4.640483 7.424774-1.546828 0.618731-2.78429 0-3.712387-1.237462s-0.928097-2.474924-0.309366-4.021753z" fill="#291614" p-id="20430"></path><path d="M736.908761 292.969184c2.165559-8.043505 4.949849-15.777644 7.424774-24.130513 0.309366-0.618731 0.928097-3.403021 1.546828-4.021753 0.618731-0.618731 1.856193-1.237462 2.165558-1.237462 1.237462-0.309366 2.474924 0.309366 3.093656 0.618731 0.618731 0.309366 1.546828 1.546828 1.546828 1.546828 3.712387 5.56858 8.043505 13.92145 10.518429 19.49003 0 3.093656-0.618731 3.093656-2.165559 4.331118-1.856193 1.237462-4.021752 0.618731-5.56858-1.856193-0.618731-1.237462-2.165559-4.640483-3.093656-6.806043-0.928097-2.165559-2.474924-6.496677-3.093655-9.280966 0 1.856193 0 4.021752-0.309366 6.187311-0.928097 3.712387-2.78429 9.590332-3.403021 12.993353-0.928097 3.093656-2.474924 6.496677-4.949849 7.734139-1.546828 0.618731-2.78429 0-3.712387-1.237462-0.618731-1.856193-0.618731-2.78429 0-4.331118z" fill="#281615" p-id="20431"></path><path d="M755.161329 290.184894c2.474924-7.734139 4.949849-15.468278 7.424774-23.511782 0.309366-0.618731 0.928097-3.093656 1.546828-4.021752 0.618731-0.618731 1.546828-1.237462 2.165558-1.237463 1.237462-0.309366 2.474924 0.309366 3.093656 0.618731 0.618731 0.309366 1.237462 1.237462 1.546828 1.546828 3.403021 5.259215 7.424773 13.612085 9.899698 18.561934 0 3.093656-0.618731 3.093656-2.165559 4.331118-1.856193 1.237462-4.021752 0.618731-5.259215-1.546828-0.618731-1.237462-2.165559-4.331118-3.093655-6.496677-0.928097-2.165559-2.165559-6.187311-2.78429-8.971601 0 1.856193 0 3.712387-0.309366 5.56858-0.928097 3.712387-2.78429 9.590332-3.403021 12.683988-1.237462 3.093656-2.474924 6.496677-4.949849 8.043504-1.546828 0.928097-2.78429 0-3.712387-1.237462-0.618731-1.546828-0.618731-2.78429 0-4.331118z" fill="#271716" p-id="20432"></path><path d="M773.413897 288.328701c2.474924-7.424773 5.259215-14.849547 7.734139-22.583686 0.309366-0.618731 0.928097-3.093656 1.546828-3.712387 0.618731-0.618731 1.546828-0.928097 2.165559-1.237462 1.237462-0.309366 2.474924 0.309366 3.093656 0.618731 0.618731 0.309366 1.237462 1.237462 1.546827 1.546828 3.093656 4.949849 7.115408 12.993353 8.971602 17.633837 0 3.403021-0.618731 3.093656-2.165559 4.021752-1.856193 1.237462-3.712387 0.618731-4.949849-1.546828-0.618731-1.237462-1.856193-4.331118-2.78429-6.496676-0.928097-2.165559-2.165559-6.187311-2.78429-8.662236 0 1.546828 0 3.093656-0.309366 4.640483-0.928097 3.403021-3.093656 9.280967-3.712387 12.374623-1.237462 3.403021-2.474924 6.806042-4.949849 8.043504-1.546828 0.928097-2.78429 0-3.712386-1.546828-0.309366-0.618731-0.309366-1.546828 0.309365-3.093655z" fill="#261716" p-id="20433"></path><path d="M791.666465 286.781873c2.474924-7.115408 5.259215-14.230816 8.043505-21.655589 0.309366-0.618731 0.928097-2.78429 1.546828-3.403021 0.618731-0.618731 1.546828-0.928097 1.856193-1.237462 1.237462-0.309366 2.165559 0.309366 3.093656 0.618731 0.618731 0.309366 1.237462 1.237462 1.237462 1.546828 2.78429 4.640483 6.496677 12.683988 8.35287 16.70574 0.309366 3.403021-0.618731 2.78429-2.165559 4.021752-1.546828 1.237462-3.403021 0.618731-4.640483-1.237462-0.618731-1.546828-1.856193-4.021752-2.474925-6.187311-0.618731-2.165559-1.856193-5.877946-2.474924-8.352871 0 1.237462 0 2.78429-0.309366 4.021753-0.928097 3.403021-3.093656 9.280967-3.712387 12.065257-1.237462 3.403021-2.474924 6.806042-4.949849 8.35287-1.546828 0.928097-2.78429 0-3.712386-1.546828-0.618731-1.237462-0.309366-2.165559 0.309365-3.712387z" fill="#251817" p-id="20434"></path><path d="M809.609668 285.853776c2.474924-7.115408 5.56858-13.92145 8.35287-21.036858 0.309366-0.618731 0.928097-2.78429 1.546828-3.403021 0.309366-0.618731 1.546828-0.928097 1.856193-0.928096 1.237462-0.309366 2.165559 0.309366 2.78429 0.618731 0.618731 0.309366 1.237462 1.237462 1.237462 1.546828 2.78429 4.331118 5.877946 12.065257 7.424774 15.777643 0.309366 3.403021-0.618731 2.78429-1.856194 4.021752-1.546828 1.237462-3.403021 0.618731-4.331118-1.237462-0.618731-1.546828-1.546828-4.021752-2.165558-6.187311-0.618731-2.165559-1.856193-5.56858-2.165559-8.043505 0 0.928097 0 2.165559-0.309366 3.403021-0.928097 3.093656-3.093656 8.971601-4.021752 11.755892-1.237462 3.712387-2.474924 7.115408-4.949849 8.662235-1.856193 0.928097-2.78429 0-3.712387-1.546827-0.618731-0.928097-0.309366-2.165559 0.309366-3.403022z" fill="#241818" p-id="20435"></path><path d="M827.55287 285.235045c2.474924-6.806042 5.56858-13.302719 8.35287-20.108761 0.309366-0.618731 0.928097-2.474924 1.546828-3.093656 0.309366-0.618731 1.237462-0.928097 1.856193-0.928096 1.237462-0.309366 2.165559 0.309366 2.78429 0.618731 0.618731 0.309366 0.928097 1.237462 1.237463 1.237462 2.474924 4.021752 5.56858 11.755891 6.806042 15.158912 0.309366 3.403021-0.618731 2.78429-1.856193 4.021753-1.546828 1.237462-3.093656 0.618731-4.021753-0.928097-0.928097-1.546828-1.546828-4.021752-2.165559-5.877946-0.618731-2.165559-1.546828-5.259215-1.856193-7.734139 0 0.928097 0 1.856193-0.309366 2.78429-0.928097 3.093656-3.403021 8.971601-4.021752 11.446526-1.237462 3.712387-2.474924 7.424773-5.259214 8.971601-1.856193 0.928097-2.78429-0.309366-3.712387-1.546827s0-2.474924 0.618731-4.021753z" fill="#221918" p-id="20436"></path><path d="M845.496073 285.544411c2.78429-6.496677 5.56858-12.993353 8.662235-19.49003 0.309366-0.618731 0.928097-2.474924 1.546828-3.093656 0.309366-0.618731 1.237462-0.928097 1.546828-0.928097 0.928097-0.309366 2.165559 0.309366 2.78429 0.618732 0.618731 0.309366 0.928097 1.237462 1.237462 1.237462 2.165559 3.712387 4.949849 11.13716 6.187311 14.230815 0.618731 3.403021-0.618731 2.78429-1.856193 3.712387-1.237462 1.237462-2.78429 0.618731-3.712387-0.928097-0.928097-1.546828-1.237462-3.712387-1.856193-5.877945-0.618731-2.165559-1.237462-4.949849-1.546828-7.424774 0 0.618731 0 1.546828-0.309366 2.165559-1.237462 2.78429-3.403021 8.662236-4.021752 11.13716-1.237462 4.021752-2.474924 7.424773-5.259214 9.280967-1.856193 1.237462-2.78429-0.309366-3.712387-1.546828-0.928097-0.618731-0.309366-1.856193 0.309366-3.093655z" fill="#211919" p-id="20437"></path><path d="M863.439275 286.163142c2.78429-6.187311 5.877946-12.374622 8.971601-18.561934 0.309366-0.618731 0.928097-2.165559 1.546828-2.78429 0.309366-0.618731 1.237462-0.618731 1.546828-0.928096 0.928097-0.309366 2.165559 0.618731 2.78429 0.618731 0.618731 0.309366 0.928097 0.928097 0.928096 1.237462 1.856193 3.403021 4.331118 10.827795 5.259215 13.302719 0.618731 3.403021-0.618731 2.474924-1.856193 3.712387-1.237462 1.237462-2.78429 0.618731-3.403022-0.618731-0.928097-1.546828-0.928097-3.712387-1.546827-5.56858-0.618731-1.856193-1.237462-4.640483-1.237463-6.806043 0 0.309366 0 0.928097-0.309365 1.546828-1.237462 2.78429-3.403021 8.662236-4.331118 10.827795-1.546828 4.021752-2.474924 7.734139-5.259214 9.280966-1.856193 1.237462-2.78429-0.309366-3.712387-1.546827-0.618731-1.237462-0.309366-2.474924 0.618731-3.712387z" fill="#201A1A" p-id="20438"></path><path d="M881.073112 287.400604c2.78429-5.877946 5.877946-11.755891 8.971601-17.633837 0.309366-0.618731 0.928097-2.165559 1.237462-2.78429 0.309366-0.618731 1.237462-0.618731 1.237462-0.928096 0.928097-0.309366 2.165559 0.618731 2.78429 0.928096 0.618731 0.309366 0.928097 0.928097 0.928097 1.237463 1.546828 3.093656 4.021752 10.209063 4.640484 12.374622 0.618731 3.403021-0.618731 2.474924-1.546828 3.712387-0.928097 1.237462-2.474924 0.618731-3.093656-0.618731-0.928097-1.546828-0.928097-3.403021-1.237462-5.568581-0.618731-1.856193-0.928097-4.331118-1.237462-6.496676 0 0.309366 0 0.618731-0.309366 0.928096-1.237462 2.474924-3.712387 8.35287-4.331118 10.518429-1.546828 4.331118-2.474924 7.734139-5.259214 9.590333-1.856193 1.237462-2.78429-0.309366-3.712387-1.546828s0-2.474924 0.928097-3.712387z" fill="#1F1A1A" p-id="20439"></path><path d="M897.778852 292.969184c-0.618731-1.237462 0-2.474924 0.618731-3.712386 2.78429-5.56858 6.187311-11.446526 9.280967-17.015106l1.237462-2.474925c0.309366-0.618731 0.928097-0.618731 1.237462-0.618731 0.928097-0.309366 2.165559 0.618731 2.78429 0.928097 0.618731 0.309366 0.618731 0.928097 0.928097 1.237462 1.237462 2.78429 3.403021 9.899698 3.712387 11.755891 0.618731 3.403021-0.618731 2.474924-1.546828 3.712387s-2.165559 0.618731-2.78429-0.309365c-0.928097-1.856193-0.618731-3.403021-1.237462-5.259215-0.309366-1.856193-0.618731-4.331118-0.928097-6.187311h-0.309366c-1.237462 2.474924-3.712387 8.35287-4.331117 10.209063-1.546828 4.331118-2.474924 8.043505-5.259215 9.899698-1.856193 0.928097-2.78429-0.618731-3.403021-2.165559z" fill="#1E1B1B" p-id="20440"></path><path d="M120.652568 586.866465l-1.856193-2.474924 286.163142-219.030816 0.309365-0.309365 395.67855-179.432025 1.237462 2.78429-395.369184 179.432025z" fill="#66281F" p-id="20441"></path><path d="M133.02719 586.5571l-1.856193-2.474925c94.975227-72.391541 189.950453-144.783082 284.92568-216.865257l0.309365-0.309365c129.933535-59.707553 260.176435-119.10574 390.10997-178.813293l1.237462 2.78429C677.81994 250.586103 547.577039 309.98429 417.643505 369.691843c-94.975227 72.082175-189.641088 144.473716-284.616315 216.865257z" fill="#62271E" p-id="20442"></path><path d="M145.092447 586.247734l-1.856193-2.474924c94.665861-71.77281 189.022356-143.236254 283.688217-215.009064l0.309366-0.309365C555.311178 309.365559 683.697885 250.276737 811.775227 190.87855l1.237462 2.78429c-128.077341 59.088822-256.464048 118.487009-384.54139 177.575831-94.356495 71.77281-188.712991 143.236254-283.378852 215.009063z" fill="#5F251D" p-id="20443"></path><path d="M157.467069 585.938369l-1.856193-2.474925c94.04713-70.844713 188.09426-141.998792 282.450755-212.843504l0.309366-0.309366c126.221148-59.088822 252.751662-117.868278 378.97281-176.647734l1.237462 2.78429c-126.221148 58.779456-252.751662 117.868278-378.97281 176.647734-94.04713 70.844713-188.09426 141.998792-282.14139 212.843505z" fill="#5B241C" p-id="20444"></path><path d="M169.532326 585.629003l-1.856193-2.474924c93.737764-70.225982 187.475529-140.451964 281.213293-210.987312l0.309366-0.309365c124.364955-58.779456 249.039275-117.249547 373.713595-175.719638l1.237462 2.78429c-124.364955 58.470091-249.039275 117.249547-373.40423 175.719638-93.737764 70.535347-187.475529 140.761329-281.213293 210.987311z" fill="#57221B" p-id="20445"></path><path d="M181.597583 585.319637l-1.856193-2.474924c93.428399-69.607251 186.547432-139.214502 279.975831-208.821752 122.818127-58.470091 245.636254-116.630816 368.145015-175.100907l1.237462 2.78429c-122.818127 58.160725-245.326888 116.630816-368.145015 174.791541-92.500302 69.607251-185.928701 139.214502-279.3571 208.821752z" fill="#542119" p-id="20446"></path><path d="M193.972205 585.010272l-1.856193-2.474925c92.809668-68.98852 185.928701-137.977039 278.738369-206.656193 120.961934-58.160725 241.923867-116.012085 362.576435-174.17281l1.237462 2.78429c-120.961934 57.85136-241.614502 116.012085-362.576435 173.863445-92.500302 68.679154-185.30997 137.667674-278.119638 206.656193z" fill="#501F18" p-id="20447"></path><path d="M206.037462 584.700906l-1.856193-2.474924c92.500302-68.369789 185.000604-136.430211 277.500906-204.8 119.10574-57.85136 238.21148-115.393353 357.007855-172.935348l1.237462 2.78429c-119.10574 57.541994-237.902115 115.393353-357.007855 172.935348-91.881571 68.060423-184.381873 136.120846-276.882175 204.490634z" fill="#4C1E17" p-id="20448"></path><path d="M218.412085 584.391541l-1.856194-2.474925c91.572205-67.132326 184.381873-135.502115 276.263444-202.634441C610.068882 321.740181 727.318429 264.507553 844.25861 207.274924l1.237463 2.784291c-117.249547 57.232628-234.189728 114.465257-351.439275 172.00725-91.26284 67.132326-184.381873 135.192749-275.644713 202.325076z" fill="#491D16" p-id="20449"></path><path d="M230.477341 584.082175l-1.856193-2.474924c91.572205-66.822961 184.072508-134.264653 275.025982-200.778248 114.774622-56.923263 231.096073-114.465257 345.870695-171.079154l1.237462 2.78429c-114.465257 56.923263-230.786707 114.465257-345.561329 171.079154-90.644109 66.20423-183.144411 133.645921-274.716617 200.468882z" fill="#451B15" p-id="20450"></path><path d="M242.542598 584.082175l-1.856193-2.474924c91.26284-66.20423 183.453776-133.02719 273.788519-198.612689 112.918429-56.613897 227.383686-113.846526 340.302115-170.151057l1.237463 2.78429c-113.227795 56.304532-227.693051 113.53716-340.302115 170.151057-89.716012 64.966767-181.906949 131.789728-273.169789 198.303323z" fill="#421A14" p-id="20451"></path><path d="M254.917221 583.77281l-1.856194-2.474925c90.644109-65.585498 182.216314-131.480363 272.551058-196.756495C637.293051 327.927492 749.902115 271.00423 860.654985 215.318429l1.546828 2.78429c-110.443505 55.685801-223.052568 112.609063-334.733535 169.222961-90.334743 64.657402-181.906949 130.861631-272.551057 196.44713z" fill="#3E1813" p-id="20452"></path><path d="M266.982477 583.463444l-1.856193-2.474924c90.025378-64.657402 181.597583-130.2429 271.313595-194.590937 109.515408-55.995166 220.268278-112.609063 329.47432-168.294864l1.546828 2.78429c-109.206042 55.685801-219.958912 112.299698-329.164954 168.294864-89.716012 64.038671-180.978852 129.314804-271.313596 194.281571z" fill="#3A1712" p-id="20453"></path><path d="M279.3571 583.154079l-1.856194-2.474925c89.406647-64.038671 180.360121-128.696073 270.385499-192.425378 107.349849-55.685801 216.246526-111.680967 323.90574-167.366767l1.546828 2.78429c-107.659215 55.376435-216.555891 111.680967-323.596375 167.057402-90.025378 63.729305-180.978852 128.386707-270.385498 192.425378z" fill="#371511" p-id="20454"></path><path d="M291.422356 582.844713l-1.856193-2.474924c89.406647-63.41994 180.050755-127.45861 269.148036-190.569185 106.112387-55.685801 213.15287-111.371601 318.337161-166.43867l1.546827 2.78429c-105.18429 54.757704-212.224773 110.75287-318.027794 166.129305-89.406647 63.110574-179.74139 127.149245-269.148037 190.569184z" fill="#33140F" p-id="20455"></path><path d="M303.487613 582.535347l-1.856193-2.474924c88.787915-62.491843 178.813293-125.911782 267.910574-188.403625 103.637462-55.067069 208.821752-110.443505 312.76858-165.510574l1.546828 2.78429c-103.946828 54.757704-209.131118 110.443505-312.459215 165.201208-89.097281 62.491843-179.122659 125.911782-267.910574 188.403625z" fill="#2F130E" p-id="20456"></path><path d="M315.862236 582.225982l-1.856194-2.474925c88.47855-62.182477 178.194562-124.983686 266.673112-186.547432 101.471903-54.448338 204.8-109.824773 307.2-164.273111l1.546828 2.78429c-102.4 54.757704-205.728097 109.824773-306.890635 164.273111-88.47855 61.254381-178.194562 124.055589-266.673111 186.238067z" fill="#2C110D" p-id="20457"></path><path d="M327.927492 581.916616l-1.856193-2.474924c88.169184-61.254381 177.266465-123.436858 265.43565-184.381873 99.925076-54.448338 201.396979-109.206042 301.63142-163.345015l1.546827 2.78429c-99.925076 54.138973-201.396979 108.896677-301.322054 163.345015-88.169184 60.63565-177.266465 122.818127-265.43565 184.072507z" fill="#28100C" p-id="20458"></path><path d="M340.302115 581.607251l-1.856194-2.474925c87.550453-60.63565 176.647734-122.199396 264.198188-182.525679 98.068882-54.138973 197.684592-108.587311 296.06284-162.416919l1.546827 2.78429c-98.068882 53.829607-197.684592 108.277946-295.753474 162.416919-87.859819 60.326284-176.647734 121.580665-264.198187 182.216314z" fill="#240E0B" p-id="20459"></path><path d="M352.367372 581.297885l-1.856194-2.474924c86.931722-60.016918 175.410272-120.652568 262.960725-180.360121 96.212689-53.829607 193.972205-107.96858 290.49426-161.488822l1.546828 2.78429c-96.522054 53.520242-193.972205 107.659215-290.184894 161.488822-87.550453 59.707553-176.029003 120.343202-262.960725 180.050755z" fill="#210D0A" p-id="20460"></path><path d="M364.432628 580.98852l-1.856193-2.474925c86.622356-59.398187 174.791541-119.415106 261.723263-178.194562 94.356495-53.520242 190.259819-107.349849 284.92568-160.560725l1.546827 2.78429c-94.665861 53.210876-190.259819 107.040483-284.616314 160.560725-86.931722 58.779456-175.100906 118.796375-261.723263 177.885197z" fill="#1D0B09" p-id="20461"></path><path d="M376.807251 580.679154l-1.856194-2.474924c86.312991-58.779456 174.17281-118.177644 260.485801-176.338369 92.500302-52.901511 186.238066-106.731118 279.3571-159.632628l1.546827 2.78429c-92.809668 52.901511-186.856798 106.421752-279.047734 159.632628-86.312991 58.160725-174.17281 117.558912-260.4858 176.029003z" fill="#1A0A08" p-id="20462"></path><path d="M388.872508 580.369789l-1.856194-2.474925c86.003625-58.160725 173.244713-116.630816 259.248339-174.17281 90.953474-52.901511 182.835045-106.112387 273.788519-158.704531l1.546828 2.78429c-90.644109 52.282779-182.835045 105.803021-273.479154 158.704531-86.003625 57.232628-173.244713 116.012085-259.248338 173.863445z" fill="#160907" p-id="20463"></path><path d="M400.937764 580.369789l-1.856193-2.474925c85.69426-57.232628 172.316616-115.393353 258.010876-172.316616 88.787915-52.592145 179.122659-105.493656 268.21994-157.776435l1.546828 2.78429c-89.097281 52.282779-179.122659 105.18429-267.910575 157.467069-85.384894 56.923263-172.316616 114.774622-258.010876 172.316617z" fill="#120706" p-id="20464"></path><path d="M413.312387 580.060423l-1.856194-2.474925c85.075529-56.613897 171.38852-113.846526 256.773414-170.151057 86.931722-52.282779 175.410272-104.874924 262.65136-156.538973l1.546828 2.78429c-87.241088 51.973414-175.410272 104.565559-262.341994 156.538973-85.384894 55.995166-171.697885 113.227795-256.773414 169.841692z" fill="#0F0604" p-id="20465"></path><path d="M425.377644 579.751057l-1.856194-2.474924c84.766163-55.995166 170.769789-112.609063 255.845317-168.294864 85.384894-51.973414 171.697885-104.256193 257.08278-155.610876l1.546828 2.78429c-85.384894 51.354683-171.697885 103.637462-257.08278 155.610876-84.766163 55.376435-170.769789 111.990332-255.535951 167.985498z" fill="#0B0403" p-id="20466"></path><path d="M437.752266 579.441692l-1.546828-2.474925c84.147432-55.376435 169.841692-111.062236 254.607855-166.129305 83.528701-51.664048 167.985498-103.637462 251.514199-154.682779l1.546828 2.78429c-83.219335 51.045317-167.985498 103.018731-251.514199 154.682779-85.075529 54.757704-170.460423 110.443505-254.607855 165.81994z" fill="#070302" p-id="20467"></path><path d="M449.817523 579.132326l-1.546828-2.474924c83.838066-54.757704 169.222961-109.824773 253.370393-163.963746 81.363142-51.354683 164.273112-103.018731 245.945619-153.754683l1.546828 2.474924c-81.672508 50.735952-164.273112 102.709366-245.94562 153.754683-84.147432 54.138973-169.532326 109.206042-253.370392 163.963746z" fill="#040101" p-id="20468"></path><path d="M461.882779 578.822961l-1.546827-2.474925c83.528701-54.138973 168.294864-108.587311 252.13293-162.107553 79.816314-51.045317 160.560725-102.4 240.377039-152.826586l1.546828 2.474925c-79.816314 50.426586-160.560725 101.781269-240.377039 152.826586-83.528701 53.520242-168.294864 107.96858-252.132931 162.107553z" p-id="20469"></path><path d="M172.935347 590.269486c-14.540181 0-29.080363-1.237462-43.929909-3.403021-4.949849-0.928097-8.662236-5.56858-7.734139-10.518429 0.928097-4.949849 5.56858-8.662236 10.518429-7.734139 22.583686 3.712387 45.167372 4.331118 67.441692 1.856194 40.217523-4.331118 66.822961-16.70574 92.500302-29.080363 22.893051-10.827795 44.54864-21.346224 73.319638-24.130513 41.76435-4.331118 86.312991 8.971601 132.099093 39.289425 4.331118 2.78429 5.56858 8.662236 2.474925 12.993354-2.78429 4.331118-8.662236 5.56858-12.993354 2.474924-42.073716-27.8429-82.600604-40.217523-120.033837-36.19577-25.677341 2.78429-44.858006 11.755891-67.441692 22.583686-25.677341 12.374622-55.067069 25.986707-98.378247 30.62719-8.971601 0.618731-18.561934 1.237462-27.842901 1.237462z" fill="#BC710D" p-id="20470"></path><path d="M941.399396 269.148036c-2.474924 0-4.640483-0.928097-6.496677-2.78429-14.849547-14.849547-40.217523-34.958308-77.032024-44.239275-33.41148-8.662236-62.801208-5.259215-81.363142-0.618731-4.949849 1.237462-9.899698-1.856193-11.13716-6.806042-1.237462-4.949849 1.856193-9.899698 6.806042-11.13716 20.727492-4.949849 53.210876-8.662236 90.025378 0.928096 40.836254 10.518429 68.98852 32.792749 85.384894 49.189124 3.712387 3.712387 3.712387 9.590332 0 12.993354-1.546828 1.546828-4.021752 2.474924-6.187311 2.474924z" fill="#BC710D" p-id="20471"></path><path d="M213.15287 727.009063c-10.209063 0-18.252568-8.35287-18.252568-18.252568s8.35287-18.252568 18.252568-18.252568 18.252568 8.35287 18.252568 18.252568-8.35287 18.252568-18.252568 18.252568z m0-24.130513c-3.403021 0-5.877946 2.78429-5.877946 5.877945s2.78429 5.877946 5.877946 5.877946 5.877946-2.78429 5.877946-5.877946-2.78429-5.877946-5.877946-5.877945z" fill="#BC710D" p-id="20472"></path><path d="M157.467069 702.87855c-18.252568 0-33.102115-14.849547-33.102114-33.102115s14.849547-33.102115 33.102114-33.102115 33.102115 14.849547 33.102115 33.102115-14.849547 33.102115-33.102115 33.102115z m0-53.829607a20.727492 20.727492 0 1 0 0 41.454984 20.727492 20.727492 0 0 0 0-41.454984z" fill="#BC710D" p-id="20473"></path><path d="M370.001208 625.846526c-18.252568 0-33.102115-14.849547-33.102114-33.102115s14.849547-33.102115 33.102114-33.102115 33.102115 14.849547 33.102115 33.102115-15.158912 33.102115-33.102115 33.102115z m0-53.520242a20.727492 20.727492 0 1 0 20.727493 20.727492c-0.309366-11.446526-9.590332-20.727492-20.727493-20.727492z" fill="#BC710D" p-id="20474"></path><path d="M271.313595 687.410272c-11.755891 0-21.655589-9.590332-21.655589-21.655589 0-11.755891 9.590332-21.655589 21.655589-21.655589s21.655589 9.590332 21.655589 21.655589-9.899698 21.655589-21.655589 21.655589z m0-30.62719c-4.949849 0-9.280967 4.021752-9.280967 9.280966s4.021752 9.280967 9.280967 9.280967 9.280967-4.021752 9.280967-9.280967-4.331118-9.280967-9.280967-9.280966z" fill="#BC710D" p-id="20475"></path><path d="M306.581269 666.992145c-10.209063 0-18.252568-8.35287-18.252568-18.252568s8.35287-18.252568 18.252568-18.252568 18.252568 8.35287 18.252568 18.252568-8.35287 18.252568-18.252568 18.252568z m0-24.439879c-3.403021 0-5.877946 2.78429-5.877946 5.877945s2.78429 5.877946 5.877946 5.877946 5.877946-2.78429 5.877946-5.877946-2.78429-5.877946-5.877946-5.877945z" fill="#BC710D" p-id="20476"></path><path d="M218.102719 691.122659c-11.446526 0-21.036858-9.280967-21.036858-21.036858s9.280967-21.036858 21.036858-21.036858c11.446526 0 21.036858 9.280967 21.036858 21.036858s-9.280967 21.036858-21.036858 21.036858z m0-29.389728c-4.640483 0-8.662236 3.712387-8.662236 8.662235s3.712387 8.662236 8.662236 8.662236c4.640483 0 8.662236-3.712387 8.662236-8.662236s-4.021752-8.662236-8.662236-8.662235z" fill="#BC710D" p-id="20477"></path><path d="M267.601208 641.314804c-9.899698 0-17.633837-8.043505-17.633836-17.633837s8.043505-17.633837 17.633836-17.633837 17.633837 8.043505 17.633837 17.633837-8.043505 17.633837-17.633837 17.633837z m0-23.202417c-3.093656 0-5.259215 2.474924-5.259214 5.259214s2.474924 5.259215 5.259214 5.259215 5.259215-2.474924 5.259215-5.259215-2.474924-5.259215-5.259215-5.259214z" fill="#BC710D" p-id="20478"></path><path d="M305.962538 625.846526c-9.899698 0-17.633837-8.043505-17.633837-17.633837s8.043505-17.633837 17.633837-17.633837 17.633837 8.043505 17.633837 17.633837-8.043505 17.633837-17.633837 17.633837z m0-22.893052c-3.093656 0-5.259215 2.474924-5.259215 5.259215s2.474924 5.259215 5.259215 5.259214 5.259215-2.474924 5.259214-5.259214-2.474924-5.259215-5.259214-5.259215z" fill="#BC710D" p-id="20479"></path><path d="M330.093051 607.903323c-5.877946 0-11.755891-2.165559-16.087009-6.806042-4.331118-4.331118-6.806042-9.899698-6.806042-16.087009s2.474924-11.755891 6.806042-16.087009c8.971601-8.971601 23.511782-8.971601 32.174018 0 4.331118 4.331118 6.806042 9.899698 6.806043 16.087009s-2.474924 11.755891-6.806043 16.087009c-4.331118 4.640483-10.209063 6.806042-16.087009 6.806042z m0-33.102115c-2.78429 0-5.259215 0.928097-7.424773 3.093656-1.856193 1.856193-3.093656 4.640483-3.093656 7.424773s1.237462 5.56858 3.093656 7.424774c4.021752 4.021752 10.827795 4.021752 14.849547 0 1.856193-1.856193 3.093656-4.640483 3.093655-7.424774s-1.237462-5.56858-3.093655-7.424773c-1.856193-2.165559-4.640483-3.093656-7.424774-3.093656z" fill="#BC710D" p-id="20480"></path><path d="M344.014502 573.563746m-12.065257 0a12.065257 12.065257 0 1 0 24.130513 0 12.065257 12.065257 0 1 0-24.130513 0Z" fill="#BC710D" p-id="20481"></path><path d="M151.898489 642.861631m-12.065256 0a12.065257 12.065257 0 1 0 24.130513 0 12.065257 12.065257 0 1 0-24.130513 0Z" fill="#BC710D" p-id="20482"></path><path d="M399.390937 577.276133m-18.252568 0a18.252568 18.252568 0 1 0 36.505136 0 18.252568 18.252568 0 1 0-36.505136 0Z" fill="#BC710D" p-id="20483"></path><path d="M422.283988 580.98852m-14.230816 0a14.230816 14.230816 0 1 0 28.461632 0 14.230816 14.230816 0 1 0-28.461632 0Z" fill="#BC710D" p-id="20484"></path><path d="M228.930514 677.201208c-13.302719 0-24.130514-10.827795-24.130514-24.130513s10.827795-24.130514 24.130514-24.130514 24.130514 10.827795 24.130513 24.130514-10.827795 24.130514-24.130513 24.130513z m0-35.886404c-6.496677 0-11.755891 5.259215-11.755892 11.755891s5.259215 11.755891 11.755892 11.755891c6.496677 0 11.755891-5.259215 11.755891-11.755891s-5.259215-11.755891-11.755891-11.755891z" fill="#BC710D" p-id="20485"></path><path d="M328.855589 646.574018c-10.518429 0-18.871299-8.662236-18.871299-18.871299 0-10.518429 8.662236-18.871299 18.871299-18.871299s18.871299 8.662236 18.871299 18.871299c0.309366 10.209063-8.35287 18.871299-18.871299 18.871299z m0-25.677341c-3.712387 0-6.496677 3.093656-6.496677 6.496676 0 3.712387 3.093656 6.496677 6.496677 6.496677 3.712387 0 6.496677-3.093656 6.496677-6.496677 0.309366-3.712387-2.78429-6.496677-6.496677-6.496676z" fill="#BC710D" p-id="20486"></path><path d="M184.381873 677.201208c-12.683988 0-22.893051-10.209063-22.893051-22.893051s10.209063-22.893051 22.893051-22.893051c12.683988 0 22.893051 10.209063 22.893051 22.893051s-10.518429 22.893051-22.893051 22.893051z m0-33.41148c-5.877946 0-10.518429 4.640483-10.518429 10.518429s4.640483 10.518429 10.518429 10.518429 10.518429-4.640483 10.518429-10.518429c-0.309366-5.877946-4.949849-10.518429-10.518429-10.518429z" fill="#BC710D" p-id="20487"></path><path d="M252.751662 650.286405c-11.446526 0-21.036858-9.280967-21.036858-21.036858s9.280967-21.036858 21.036858-21.036858 21.036858 9.280967 21.036858 21.036858-9.590332 21.036858-21.036858 21.036858z m0-29.389728c-4.640483 0-8.662236 3.712387-8.662236 8.662235s3.712387 8.662236 8.662236 8.662236 8.662236-3.712387 8.662235-8.662236-4.021752-8.662236-8.662235-8.662235z" fill="#BC710D" p-id="20488"></path><path d="M120.961934 675.963746c-12.374622 0-22.27432-9.899698-22.274321-22.27432s9.899698-22.27432 22.274321-22.27432 22.27432 9.899698 22.27432 22.27432-10.209063 22.27432-22.27432 22.27432z m0-32.174018c-5.259215 0-9.899698 4.331118-9.899698 9.899698s4.331118 9.899698 9.899698 9.899698c5.259215 0 9.899698-4.331118 9.899697-9.899698s-4.640483-9.899698-9.899697-9.899698z" fill="#BC710D" p-id="20489"></path></svg>