<svg t="1679074142797" class="icon" viewBox="0 0 1024 1024" version="1.1" xmlns="http://www.w3.org/2000/svg" p-id="14776" width="48" height="48"><path d="M460.458667 789.333333c-4.842667-34.069333-16.768-54.72-35.776-61.930666-15.210667-5.781333-39.04-10.901333-110.08 13.333333C267.2 756.906667 205.013333 773.12 128 789.333333l-21.184-43.008c43.008-9.066667 82.218667-20.181333 117.653333-33.344 53.162667-19.712 135.914667-44.522667 193.706667-50.858666 38.506667-4.224 68.864 8.405333 91.093333 37.888l3.221334 9.237333 9.984 0.042667 9.962666-0.042667 3.264-9.237333c28.650667-31.36 62.229333-44.949333 100.736-40.725334 57.792 6.336 130.901333 33.984 184.042667 53.696 35.413333 13.162667 74.666667 24.277333 117.653333 33.344L916.949333 789.333333c-77.013333-16.213333-139.221333-32.426667-186.581333-48.597333-71.04-24.234667-94.890667-19.114667-110.08-13.333333-19.029333 7.210667-30.933333 27.861333-35.776 61.930666z" fill="#FF962A" p-id="14777"></path><path d="M450.474667 720.213333c14.016 12.906667 23.552 29.056 28.608 48.469334h87.168c14.741333-44.437333 39.210667-65.6 73.429333-63.530667 51.306667 3.136 119.722667 28.992 154.282667 40.021333 22.954667 7.338667 66.197333 17.493333 129.706666 30.506667l-6.72 13.653333c-77.013333-16.213333-139.221333-32.426667-186.581333-48.597333-71.04-24.234667-94.890667-19.114667-110.08-13.333333-19.029333 7.210667-30.933333 27.861333-35.776 61.930666h-124.053333c-4.842667-34.069333-16.768-54.72-35.776-61.930666-15.210667-5.781333-39.04-10.901333-110.08 13.333333-44.586667 15.232-102.314667 30.464-173.162667 45.738667L128 789.333333l-6.378667-12.949333 5.226667-1.258667c71.978667-17.408 116.224-28.885333 132.757333-34.453333 25.706667-8.682667 97.877333-33.386667 112.874667-35.52 15.018667-2.112 56.981333-4.288 77.994667 15.061333z" fill="#F05400" p-id="14778"></path><path d="M512.704 262.229333l9.962667 0.128V709.973333l-9.962667-0.064c-26.794667-44.8-77.056-57.92-150.741333-39.381333C251.413333 698.325333 193.450667 735.786667 106.666667 746.666667c6.592-42.368 26.922667-187.733333 61.013333-436.138667 104.853333-35.626667 182.442667-59.2 232.768-70.656 50.325333-11.456 87.744-4.010667 112.256 22.357333z" fill="#FFD3A5" p-id="14779"></path><path d="M522.624 709.973333l-9.92-0.064c-24.96-42.026667-74.304-53.76-148.010667-35.242666C254.144 702.464 197.930667 733.973333 106.666667 746.666667c6.592-42.368 26.922667-194.858667 61.013333-457.472 104.853333-35.626667 182.442667-59.2 232.768-70.656 50.325333-11.456 87.744-4.010667 112.256 22.357333l9.92 0.106667 9.962667-0.106667c23.488-25.258667 58.837333-33.152 106.026666-23.68l6.229334 1.322667c50.325333 11.456 127.914667 35.008 232.789333 70.656 34.069333 262.613333 54.4 415.104 60.992 457.472-86.784-10.837333-144.746667-48.341333-255.296-76.16-73.685333-18.517333-123.946667-5.397333-150.741333 39.402666l-9.92 0.064h-0.042667z" fill="#FFD3A5" p-id="14780"></path><path d="M877.632 289.194667c34.069333 262.613333 54.4 415.104 60.992 457.472-56.234667-7.04-100.373333-25.258667-154.56-44.778667l-36.416-454.997333a4572.586667 4572.586667 0 0 1 129.984 42.304z m-579.925333-42.325334L260.992 705.493333C208.426667 722.986667 164.608 738.602667 106.666667 746.666667c6.592-42.368 26.922667-194.858667 61.013333-457.472a4571.434667 4571.434667 0 0 1 130.026667-42.325334z" fill="#FFE3B6" p-id="14781"></path><path d="M618.709333 214.186667l18.688 448.64c-47.104-3.242667-81.173333 11.093333-102.229333 42.986666l-2.56 4.096-9.941333 0.064h-0.042667l-9.92-0.064c-19.754667-33.216-54.698667-47.530667-104.896-42.901333l18.837333-452.842667c37.333333-3.733333 66.005333 5.162667 86.058667 26.730667l9.92 0.106667 9.962667-0.106667c20.053333-21.568 48.768-30.485333 86.122666-26.730667z" fill="#FFC589" p-id="14782"></path><path d="M512 240.554667h21.333333v469.333333h-21.333333z" fill="#FF962A" p-id="14783"></path></svg>