<svg t="1679075267449" class="icon" viewBox="0 0 1024 1024" version="1.1" xmlns="http://www.w3.org/2000/svg" p-id="26297" width="48" height="48"><path d="M1023.90282 512.000115c5.118997 317.37983-194.522896 517.022722-511.902725 511.903725C194.620265 1026.463839-5.022627 829.379945 0.09637 512.000115-5.022627 192.060287 194.620265-5.021607 512.000095 0.09739c317.37983-5.118997 517.021722 191.963897 511.902725 511.903725z" fill="#C3272B" p-id="26298" data-spm-anchor-id="a313x.7781069.0.i45" class="selected"></path><path d="M1021.342821 565.750086C1005.98583 340.513207 852.414912 199.740283 614.38004 204.86028c-253.391864-5.119997-414.640777 153.569918-409.52178 409.52178-5.119997 238.034872 135.653927 391.60579 360.890806 406.962781 268.749856-15.356992 440.236764-186.8439 455.593755-455.593755z" fill="#C3272B" p-id="26299" data-spm-anchor-id="a313x.7781069.0.i46" class="selected"></path><path d="M1016.223824 629.738052C985.509841 491.524126 878.009898 407.060171 716.760985 409.62017c-189.403898-2.559999-309.701834 117.737937-307.141835 307.141835-2.559999 158.689915 81.903956 268.748856 220.117882 299.462839 209.879887-35.832981 350.653812-176.605905 386.486792-386.486792z" fill="#C3272B" p-id="26300" data-spm-anchor-id="a313x.7781069.0.i48" class="selected"></path><path d="M998.307834 703.964012c-33.273982-58.868968-94.702949-92.141951-179.166904-92.141951-127.974931-2.559999-207.319889 76.784959-204.75989 204.75989-2.559999 81.904956 33.272982 145.892922 92.141951 179.166904 138.213926-40.951978 248.272867-151.010919 291.784843-291.784843z" fill="#C3272B" opacity=".39" p-id="26301" data-spm-anchor-id="a313x.7781069.0.i47" class="selected"></path><path d="M376.345168 542.715099a22.939988 22.939988 0 0 0-23.035988 23.034987v74.22596c0 12.797993 10.238995 23.035988 23.035988 23.035988s23.035988-10.237995 23.035987-23.035988V565.750086c-2.559999-12.796993-10.237995-25.594986-23.035987-23.034987z m0-30.713984a22.939988 22.939988 0 0 0 23.035987-23.035988v-74.22596c0-12.797993-10.237995-23.035988-23.035987-23.035987s-23.035988 10.237995-23.035988 23.035987v74.22596A22.939988 22.939988 0 0 0 376.345168 512.000115z" fill="#FFFFFF" p-id="26302"></path><path d="M829.379925 483.84613c23.034988-2.559999 38.391979-20.475989 38.391979-43.511977v-40.951978c0-66.547964-53.749971-120.296935-120.296935-120.296935H281.643219c-66.546964 0-120.296935 53.749971-120.296936 120.296935v40.951978c0 23.035988 17.91599 43.511977 40.951978 43.511977 23.035988 0 40.951978 20.475989 40.951978 43.511977s-17.91599 43.510977-40.951978 43.510976c-23.035988 0-40.951978 20.476989-40.951978 43.511977v53.749971c0 66.546964 53.749971 120.296935 120.296936 120.296936h465.83175c66.546964 0 120.296935-53.749971 120.296935-120.296936v-53.749971c0-23.034988-17.91599-40.951978-38.391979-43.511977-23.035988-2.559999-38.392979-20.475989-38.39298-43.510976 0-23.035988 17.91599-40.952978 38.39298-43.511977z m-5.119998 130.53493v53.749971c0 43.511977-35.832981 76.784959-76.784958 76.784959H399.381155v-35.832981c0-12.796993-10.237995-23.034988-23.035987-23.034987s-23.035988 10.237995-23.035988 23.034987v35.832981h-71.665961c-43.511977 0-76.784959-35.832981-76.784959-76.784959v-53.749971a87.023953 87.023953 0 0 0 81.903956-87.022953c0-46.071975-35.832981-84.463955-81.903956-87.023954v-40.951978c0-43.511977 35.832981-76.785959 76.784959-76.785958h71.665961v23.035987c0 12.797993 10.238995 23.035988 23.035988 23.035988s23.035988-10.237995 23.035987-23.035988v-20.475989h350.653812c43.510977 0 76.784959 35.832981 76.784959 76.784959v40.952978c-43.511977 5.118997-76.784959 40.951978-76.784959 87.022953-2.559999 43.511977 30.713984 79.344957 74.22496 84.463955z" fill="#FFFFFF" p-id="26303"></path></svg>