<svg t="1678955201532" class="icon" viewBox="0 0 1024 1024" version="1.1" xmlns="http://www.w3.org/2000/svg" p-id="6506" width="48" height="48"><path d="M716.8 177.4848c74.24 0 134.4 60.16 134.4 134.4a32 32 0 0 1-63.8464 3.2768l-0.1536-3.2768a70.4 70.4 0 0 0-66.0992-70.272L716.8 241.4848H307.2a70.4 70.4 0 0 0-70.272 66.1248l-0.128 4.2752V603.392a70.4 70.4 0 0 0 66.0992 70.272l4.3008 0.128h138.6752c9.728 0 18.8928 4.4544 24.9344 11.9552l2.0992 2.944L512 750.4128l39.0656-61.7472a32 32 0 0 1 23.3984-14.6944l3.6352-0.2048H716.8a70.4 70.4 0 0 0 70.272-66.0992l0.128-4.3008v-146.944a32 32 0 0 1 63.8464-3.2512l0.1536 3.2768v146.944a134.4 134.4 0 0 1-128.8704 134.272L716.8 737.792h-121.088l-56.6784 89.6a32 32 0 0 1-51.968 2.9952l-2.0992-2.9696-56.7296-89.6256H307.2a134.4 134.4 0 0 1-134.2976-128.8448l-0.1024-5.5552V311.8848a134.4 134.4 0 0 1 128.8704-134.272L307.2 177.4848h409.6z" fill="#C3272B" p-id="6507"></path><path d="M349.7984 456.448m-55.552 0a55.552 55.552 0 1 0 111.104 0 55.552 55.552 0 1 0-111.104 0Z" fill="#C3272B" p-id="6508"></path><path d="M512 456.448m-55.552 0a55.552 55.552 0 1 0 111.104 0 55.552 55.552 0 1 0-111.104 0Z" fill="#C3272B" p-id="6509"></path><path d="M674.2016 456.448m-55.552 0a55.552 55.552 0 1 0 111.104 0 55.552 55.552 0 1 0-111.104 0Z" fill="#C3272B" p-id="6510"></path></svg>